<?xml version="1.0" encoding="iso-8859-1"?>
<!-- Generator: Adobe Illustrator 16.0.0, SVG Export Plug-In . SVG Version: 6.00 Build 0)  -->
<!DOCTYPE svg PUBLIC "-//W3C//DTD SVG 1.1//EN" "http://www.w3.org/Graphics/SVG/1.1/DTD/svg11.dtd">
<svg version="1.1" id="Capa_1" xmlns="http://www.w3.org/2000/svg" xmlns:xlink="http://www.w3.org/1999/xlink" x="0px" y="0px"
	 width="453.802px" height="453.803px" viewBox="0 0 453.802 453.803" style="enable-background:new 0 0 453.802 453.803;"
	 xml:space="preserve">
<g>
	<g>
		<path d="M410.757,258.509c-19.633-16.054-35.55-29.07-35.55-29.07l-37.165-49.353c-18.262-24.241-57.651-43.897-88.012-43.897
			h-69.182c0,8.001,0,16.801-0.008,26.181h58.15c0,0,43.132,3.925,62.596,23.552s32.176,47.105,32.176,47.105l-152.943,1.451
			c-0.016,36.022-0.05,70.751-0.096,92.756h46.584c0,0,43.33,0,57.292,17.355c14.383,17.894,13.754,34.736,13.754,34.736
			l-120.552,0.91c-1.176,6.856-2.729,12.728-4.652,17.633h186.802v32.384c0,13.017,12.728,23.552,28.413,23.552h36.704
			c15.701,0,28.429-10.535,28.429-23.552v-54.954c0-6.239-2.77-11.882-7.206-16.098v-16.65
			C446.307,312.188,430.389,274.578,410.757,258.509z M352.746,323.445c-25.651,0-62.144,5.486-62.144-7.085
			c0-12.596,36.492-38.5,62.144-38.5c25.659,0,46.458,10.211,46.458,22.799C399.204,313.23,378.405,323.445,352.746,323.445z"/>
		<path d="M82.735,442.478c31.881,0,59.477-18.113,73.18-44.61c0.635-1.227,1.272-2.437,1.848-3.695
			c1.759-3.863,3.07-8.66,4.082-13.813c2.607-13.232,3.124-29.134,3.156-40.034c0.014-3.57,0.022-8.051,0.03-13.108
			c0.046-21.988,0.072-56.625,0.096-92.596c0.016-24.741,0.022-50.026,0.022-72.258c0-9.381,0-18.182,0.008-26.182
			c0-25.123,0.008-42.076,0.008-42.076c106.5,0,225.712,55.964,213.257,92.61c-2.813,8.299-3.046,12.599-0.746,12.599
			c1.672,0,4.693-2.292,9.018-7.011C516.669,50.754,210.115,12.591,138.244,0.37C136.793,0.126,135.373,0,133.972,0
			c-12.936,0-22.906,10.299-22.906,23.99v138.372v72.763v47.597c-8.847-3.238-18.36-5.102-28.331-5.102
			c-45.522,0-82.429,36.9-82.429,82.429C0.306,405.573,37.213,442.478,82.735,442.478z"/>
	</g>
</g>
<g>
</g>
<g>
</g>
<g>
</g>
<g>
</g>
<g>
</g>
<g>
</g>
<g>
</g>
<g>
</g>
<g>
</g>
<g>
</g>
<g>
</g>
<g>
</g>
<g>
</g>
<g>
</g>
<g>
</g>
</svg>
